<?xml version="1.0" standalone="no"?><!DOCTYPE svg PUBLIC "-//W3C//DTD SVG 1.1//EN" "http://www.w3.org/Graphics/SVG/1.1/DTD/svg11.dtd"><svg class="icon" width="200px" height="200.00px" viewBox="0 0 1024 1024" version="1.1" xmlns="http://www.w3.org/2000/svg"><path d="M0 0m184.32 0l655.36 0q184.32 0 184.32 184.32l0 655.36q0 184.32-184.32 184.32l-655.36 0q-184.32 0-184.32-184.32l0-655.36q0-184.32 184.32-184.32Z" fill="#FFFFFF" /><path d="M512 117.39136c210.24768 0 237.75232 201.4208 237.75232 332.6464a1022.78144 1022.78144 0 0 1-237.76256 28.50816 1022.78144 1022.78144 0 0 1-237.75232-28.50816C274.23744 318.81216 301.74208 117.39136 512 117.39136z"  /><path d="M402.64704 839.68c60.3648 0 109.78304 54.85568 109.78304 66.9184 0 0-49.41824-0.39936-109.78304-0.39936s-109.30176 2.6624-109.30176-9.10336 48.93696-57.41568 109.30176-57.41568z" fill="#EEB13F" /><path d="M621.38368 839.75168c-60.35456 0-109.29152 54.77376-109.29152 66.84672 0 0 48.9472-0.31744 109.312-0.31744s109.30176 2.65216 109.30176-9.1136-48.95744-57.41568-109.32224-57.41568z" fill="#EEB13F" /><path d="M512 906.5984c-131.28704 0-237.71136-80.35328-237.71136-217.86624 0 0-95.08864 143.23712-95.08864 76.3904 0-38.33856 29.88032-162.9184 66.56-229.18144a1521.0496 1521.0496 0 0 0 266.24 28.672 1521.0496 1521.0496 0 0 0 266.24-28.672A472.576 472.576 0 0 1 844.8 765.12256c0 66.84672-95.08864-76.3904-95.08864-76.3904 0 175.70816-122.18368 217.86624-237.71136 217.86624z"  /><path d="M397.91616 278.95808a66.52928 47.52384 90 1 0 95.04768 0 66.52928 47.52384 90 1 0-95.04768 0Z" fill="#FFFFFF" /><path d="M531.0464 278.95808a66.52928 47.52384 90 1 0 95.04768 0 66.52928 47.52384 90 1 0-95.04768 0Z" fill="#FFFFFF" /><path d="M435.93728 279.01952a28.50816 23.7568 90 1 0 47.5136 0 28.50816 23.7568 90 1 0-47.5136 0Z"  /><path d="M543.83616 289.60768c-4.22912-8.43776 13.38368-23.98208 35.05152-23.08096s32.1024 7.168 27.16672 14.94016-0.57344 0.38912-25.12896 0-32.86016 16.57856-37.08928 8.1408z"  /><path d="M512 364.62592c49.152 0 142.56128 17.01888 142.56128 38.02112s-89.78432 47.5136-142.56128 47.5136-142.56128-26.5216-142.56128-47.5136 93.45024-38.02112 142.56128-38.02112z" fill="#EEB13F" /><path d="M340.77696 551.14752a1283.328 1283.328 0 0 0 171.22304 13.312 1283.328 1283.328 0 0 0 171.22304-13.312s67.1744 326.94272-171.22304 326.94272-171.22304-326.94272-171.22304-326.94272z" fill="#FFFFFF" /><path d="M274.25792 450.2528a1095.15776 1095.15776 0 0 0 237.71136 28.50816 1095.15776 1095.15776 0 0 0 237.7728-28.50816l28.52864 85.53472a1528.61696 1528.61696 0 0 1-266.30144 28.5184c-36.7616 0-43.008-0.63488-43.008-0.63488v116.02944H365.99808l0.1536-124.55936c-63.29344-7.91552-120.4224-19.3536-120.4224-19.3536z" fill="#D73732" /></svg>